<mxfile host="app.diagrams.net" agent="Mozilla/5.0 (Windows NT 10.0; Win64; x64) AppleWebKit/537.36 (KHTML, like Gecko) Chrome/131.0.0.0 Safari/537.36 Edg/131.0.0.0" version="25.0.1">
  <diagram name="หน้า-1" id="pFnk0Zwl1XezQfCs99ct">
    <mxGraphModel dx="4992" dy="1868" grid="1" gridSize="10" guides="1" tooltips="1" connect="1" arrows="1" fold="1" page="1" pageScale="1" pageWidth="827" pageHeight="1169" math="0" shadow="0">
      <root>
        <mxCell id="0" />
        <mxCell id="1" parent="0" />
        <mxCell id="voD1ay39s5oylxrlhpPu-1" value="" style="edgeStyle=orthogonalEdgeStyle;rounded=0;orthogonalLoop=1;jettySize=auto;html=1;" edge="1" parent="1" source="voD1ay39s5oylxrlhpPu-2" target="voD1ay39s5oylxrlhpPu-4">
          <mxGeometry relative="1" as="geometry" />
        </mxCell>
        <mxCell id="voD1ay39s5oylxrlhpPu-2" value="Start" style="ellipse;whiteSpace=wrap;html=1;" vertex="1" parent="1">
          <mxGeometry x="-473" y="40" width="120" height="80" as="geometry" />
        </mxCell>
        <mxCell id="voD1ay39s5oylxrlhpPu-3" value="" style="edgeStyle=orthogonalEdgeStyle;rounded=0;orthogonalLoop=1;jettySize=auto;html=1;" edge="1" parent="1" source="voD1ay39s5oylxrlhpPu-4" target="voD1ay39s5oylxrlhpPu-11">
          <mxGeometry relative="1" as="geometry" />
        </mxCell>
        <mxCell id="voD1ay39s5oylxrlhpPu-4" value="รับข้อมูลเลขUser&amp;nbsp;" style="shape=parallelogram;perimeter=parallelogramPerimeter;whiteSpace=wrap;html=1;fixedSize=1;" vertex="1" parent="1">
          <mxGeometry x="-508" y="170" width="190" height="60" as="geometry" />
        </mxCell>
        <mxCell id="voD1ay39s5oylxrlhpPu-5" style="edgeStyle=orthogonalEdgeStyle;rounded=0;orthogonalLoop=1;jettySize=auto;html=1;entryX=0.5;entryY=0;entryDx=0;entryDy=0;" edge="1" parent="1" source="voD1ay39s5oylxrlhpPu-7" target="voD1ay39s5oylxrlhpPu-14">
          <mxGeometry relative="1" as="geometry" />
        </mxCell>
        <mxCell id="voD1ay39s5oylxrlhpPu-6" style="edgeStyle=orthogonalEdgeStyle;rounded=0;orthogonalLoop=1;jettySize=auto;html=1;entryX=0.5;entryY=0;entryDx=0;entryDy=0;" edge="1" parent="1" source="voD1ay39s5oylxrlhpPu-7" target="voD1ay39s5oylxrlhpPu-23">
          <mxGeometry relative="1" as="geometry">
            <Array as="points">
              <mxPoint x="-570" y="410" />
              <mxPoint x="-570" y="800" />
              <mxPoint x="-403" y="800" />
            </Array>
          </mxGeometry>
        </mxCell>
        <mxCell id="voD1ay39s5oylxrlhpPu-7" value="Loop จนถึงค่าที่ผู้ใช้กรอก" style="rhombus;whiteSpace=wrap;html=1;" vertex="1" parent="1">
          <mxGeometry x="-487" y="370" width="147" height="80" as="geometry" />
        </mxCell>
        <mxCell id="voD1ay39s5oylxrlhpPu-8" value="Y" style="text;html=1;align=center;verticalAlign=middle;whiteSpace=wrap;rounded=0;" vertex="1" parent="1">
          <mxGeometry x="-518" y="370" width="60" height="30" as="geometry" />
        </mxCell>
        <mxCell id="voD1ay39s5oylxrlhpPu-9" value="N" style="text;html=1;align=center;verticalAlign=middle;whiteSpace=wrap;rounded=0;" vertex="1" parent="1">
          <mxGeometry x="-368" y="370" width="60" height="30" as="geometry" />
        </mxCell>
        <mxCell id="voD1ay39s5oylxrlhpPu-10" value="" style="edgeStyle=orthogonalEdgeStyle;rounded=0;orthogonalLoop=1;jettySize=auto;html=1;" edge="1" parent="1" source="voD1ay39s5oylxrlhpPu-11" target="voD1ay39s5oylxrlhpPu-7">
          <mxGeometry relative="1" as="geometry" />
        </mxCell>
        <mxCell id="voD1ay39s5oylxrlhpPu-11" value="" style="ellipse;whiteSpace=wrap;html=1;aspect=fixed;" vertex="1" parent="1">
          <mxGeometry x="-425.5" y="290" width="25" height="25" as="geometry" />
        </mxCell>
        <mxCell id="voD1ay39s5oylxrlhpPu-12" style="edgeStyle=orthogonalEdgeStyle;rounded=0;orthogonalLoop=1;jettySize=auto;html=1;entryX=0.5;entryY=0;entryDx=0;entryDy=0;" edge="1" parent="1" source="voD1ay39s5oylxrlhpPu-14" target="voD1ay39s5oylxrlhpPu-18">
          <mxGeometry relative="1" as="geometry">
            <Array as="points">
              <mxPoint x="-403" y="545" />
            </Array>
          </mxGeometry>
        </mxCell>
        <mxCell id="voD1ay39s5oylxrlhpPu-13" style="edgeStyle=orthogonalEdgeStyle;rounded=0;orthogonalLoop=1;jettySize=auto;html=1;entryX=0.5;entryY=0;entryDx=0;entryDy=0;" edge="1" parent="1" source="voD1ay39s5oylxrlhpPu-14" target="voD1ay39s5oylxrlhpPu-20">
          <mxGeometry relative="1" as="geometry">
            <Array as="points">
              <mxPoint x="-123" y="545" />
            </Array>
          </mxGeometry>
        </mxCell>
        <mxCell id="voD1ay39s5oylxrlhpPu-14" value="&lt;font style=&quot;font-size: 10px;&quot;&gt;&lt;span style=&quot;font-size: 12px;&quot;&gt;ข้อมูลลำดับ 1 มากกว่า&lt;/span&gt;&lt;/font&gt;&lt;div&gt;&lt;font style=&quot;font-size: 10px;&quot;&gt;&lt;span style=&quot;font-size: 12px;&quot;&gt;ข้อมูลลำดับ 2 ไหม&lt;/span&gt;&lt;/font&gt;&lt;/div&gt;" style="rhombus;whiteSpace=wrap;html=1;" vertex="1" parent="1">
          <mxGeometry x="-337" y="505" width="147" height="80" as="geometry" />
        </mxCell>
        <mxCell id="voD1ay39s5oylxrlhpPu-15" value="Y" style="text;html=1;align=center;verticalAlign=middle;whiteSpace=wrap;rounded=0;" vertex="1" parent="1">
          <mxGeometry x="-368" y="505" width="60" height="30" as="geometry" />
        </mxCell>
        <mxCell id="voD1ay39s5oylxrlhpPu-16" value="N" style="text;html=1;align=center;verticalAlign=middle;whiteSpace=wrap;rounded=0;" vertex="1" parent="1">
          <mxGeometry x="-218" y="505" width="60" height="30" as="geometry" />
        </mxCell>
        <mxCell id="voD1ay39s5oylxrlhpPu-17" style="edgeStyle=orthogonalEdgeStyle;rounded=0;orthogonalLoop=1;jettySize=auto;html=1;entryX=0;entryY=0.5;entryDx=0;entryDy=0;" edge="1" parent="1" source="voD1ay39s5oylxrlhpPu-18" target="voD1ay39s5oylxrlhpPu-22">
          <mxGeometry relative="1" as="geometry">
            <Array as="points">
              <mxPoint x="-400" y="773" />
              <mxPoint x="-296" y="773" />
            </Array>
          </mxGeometry>
        </mxCell>
        <mxCell id="voD1ay39s5oylxrlhpPu-18" value="แสดง () Hello World" style="shape=parallelogram;perimeter=parallelogramPerimeter;whiteSpace=wrap;html=1;fixedSize=1;" vertex="1" parent="1">
          <mxGeometry x="-498" y="630" width="190" height="60" as="geometry" />
        </mxCell>
        <mxCell id="voD1ay39s5oylxrlhpPu-19" style="edgeStyle=orthogonalEdgeStyle;rounded=0;orthogonalLoop=1;jettySize=auto;html=1;entryX=1;entryY=0.5;entryDx=0;entryDy=0;" edge="1" parent="1" source="voD1ay39s5oylxrlhpPu-20" target="voD1ay39s5oylxrlhpPu-22">
          <mxGeometry relative="1" as="geometry">
            <Array as="points">
              <mxPoint x="-123" y="773" />
            </Array>
          </mxGeometry>
        </mxCell>
        <mxCell id="voD1ay39s5oylxrlhpPu-20" value="แสดง [] Hello World" style="shape=parallelogram;perimeter=parallelogramPerimeter;whiteSpace=wrap;html=1;fixedSize=1;" vertex="1" parent="1">
          <mxGeometry x="-218" y="630" width="190" height="60" as="geometry" />
        </mxCell>
        <mxCell id="voD1ay39s5oylxrlhpPu-21" style="edgeStyle=orthogonalEdgeStyle;rounded=0;orthogonalLoop=1;jettySize=auto;html=1;entryX=1;entryY=0.5;entryDx=0;entryDy=0;" edge="1" parent="1" source="voD1ay39s5oylxrlhpPu-22" target="voD1ay39s5oylxrlhpPu-11">
          <mxGeometry relative="1" as="geometry">
            <Array as="points">
              <mxPoint x="-263" y="810" />
              <mxPoint x="-20" y="810" />
              <mxPoint x="-20" y="303" />
            </Array>
          </mxGeometry>
        </mxCell>
        <mxCell id="voD1ay39s5oylxrlhpPu-22" value="" style="ellipse;whiteSpace=wrap;html=1;aspect=fixed;" vertex="1" parent="1">
          <mxGeometry x="-276" y="760" width="25" height="25" as="geometry" />
        </mxCell>
        <mxCell id="voD1ay39s5oylxrlhpPu-23" value="END" style="ellipse;whiteSpace=wrap;html=1;" vertex="1" parent="1">
          <mxGeometry x="-463" y="870" width="120" height="80" as="geometry" />
        </mxCell>
      </root>
    </mxGraphModel>
  </diagram>
</mxfile>
